<?xml version="1.0" standalone="no"?>
<!DOCTYPE svg PUBLIC "-//W3C//DTD SVG 20010904//EN"
 "http://www.w3.org/TR/2001/REC-SVG-20010904/DTD/svg10.dtd">
<svg version="1.0" xmlns="http://www.w3.org/2000/svg"
 width="700.000000pt" height="700.000000pt" viewBox="0 0 700.000000 700.000000"
 preserveAspectRatio="xMidYMid meet">
<metadata>
Created by potrace 1.14, written by Peter Selinger 2001-2017
</metadata>
<g transform="translate(0.000000,700.000000) scale(0.100000,-0.100000)"
fill="#000000" stroke="none">
<path d="M3484 6843 c-3 -16 -10 -39 -14 -53 -5 -14 -44 -140 -86 -280 -42
-140 -79 -258 -83 -262 -3 -3 -46 -9 -96 -13 -49 -4 -92 -8 -95 -10 -3 -1 -27
-6 -55 -9 -228 -30 -576 -144 -810 -266 -141 -74 -160 -84 -163 -92 -2 -5 -8
-8 -14 -8 -20 0 -217 -142 -350 -253 -409 -341 -727 -837 -872 -1362 -24 -88
-53 -221 -62 -280 -2 -16 -6 -40 -8 -52 -3 -12 -8 -53 -11 -90 -7 -77 -13
-114 -17 -118 -2 -2 -264 -82 -573 -175 -35 -10 -54 -20 -45 -23 41 -16 427
-135 820 -252 63 -19 164 -50 225 -69 l110 -34 21 -103 c102 -486 378 -941
759 -1254 161 -131 270 -202 450 -290 181 -89 494 -189 606 -194 11 -1 22 -20
34 -58 9 -32 26 -87 37 -123 11 -36 32 -105 48 -155 15 -49 40 -130 55 -180
15 -49 42 -139 60 -200 19 -60 58 -190 88 -289 30 -98 57 -175 59 -170 3 5 19
54 36 109 95 313 155 510 157 512 1 3 47 9 115 17 69 8 143 18 160 21 417 86
706 201 1025 410 579 378 1002 973 1165 1640 16 68 32 139 35 157 25 161 35
238 35 264 0 40 8 45 100 73 77 23 150 46 268 82 37 11 81 24 97 29 98 28 185
56 185 60 0 4 -137 47 -485 151 -114 34 -153 46 -390 119 -93 29 -202 62 -242
74 -77 22 -76 21 -89 101 -10 64 -63 246 -101 345 -218 575 -678 1047 -1243
1275 -109 44 -312 105 -412 125 l-57 11 -16 57 c-9 31 -43 145 -76 252 -82
265 -94 307 -184 603 -43 141 -82 257 -87 257 -4 0 -10 -12 -14 -27z m29 -475
c2 -13 25 -88 50 -168 25 -80 66 -215 92 -300 25 -85 47 -159 49 -165 2 -6
-70 -10 -204 -10 l-207 0 8 29 c57 197 194 636 200 636 4 0 9 -10 12 -22z
m-263 -299 c-5 -16 -32 -105 -60 -198 l-52 -168 -72 -13 c-108 -19 -294 -74
-419 -125 -688 -281 -1200 -898 -1345 -1621 l-18 -87 -59 -18 c-69 -20 -293
-88 -313 -95 -16 -5 -11 57 15 206 8 47 17 99 20 115 11 64 75 272 119 383
335 857 1092 1474 1998 1626 72 13 145 23 163 24 30 1 31 0 23 -29z m480 -492
c14 -3 47 -8 74 -12 411 -52 852 -277 1168 -596 337 -340 552 -794 595 -1256
14 -149 8 -407 -12 -528 -114 -684 -525 -1247 -1133 -1553 -189 -95 -375 -155
-617 -198 -105 -19 -446 -26 -552 -12 -391 53 -726 187 -1031 415 -113 85
-318 293 -406 412 -120 161 -189 286 -281 506 -22 51 -65 196 -85 280 -35 157
-45 249 -45 450 0 235 3 266 49 503 11 55 62 206 103 306 228 561 703 1002
1283 1193 70 23 161 47 220 59 81 16 143 25 200 30 36 4 67 8 69 10 6 5 372
-3 401 -9z m-2468 -2072 c0 -108 -2 -198 -5 -201 -2 -3 -81 18 -173 46 -93 29
-238 72 -321 98 -84 25 -153 49 -153 53 0 3 10 9 23 12 12 3 51 14 87 25 36
11 164 50 285 87 121 37 227 71 235 75 8 5 16 7 18 5 2 -2 4 -92 4 -200z
m4790 104 c183 -56 335 -103 337 -105 7 -6 -4 -14 -25 -18 -11 -2 -48 -13 -84
-25 -81 -26 -103 -33 -215 -66 -49 -15 -147 -45 -216 -66 -70 -21 -128 -39
-130 -39 -3 0 -5 95 -5 210 0 116 2 210 3 210 2 0 153 -45 335 -101z m33 -401
c-7 -51 -33 -211 -40 -253 -20 -109 -101 -362 -156 -486 -143 -325 -312 -573
-564 -824 -336 -336 -736 -563 -1195 -680 -52 -13 -108 -26 -125 -29 -16 -3
-54 -10 -84 -16 -30 -6 -83 -13 -118 -16 l-63 -6 10 28 c7 24 87 291 106 356
5 16 29 26 89 35 94 14 308 83 439 140 321 142 607 359 829 633 107 131 155
202 229 336 96 175 186 413 223 589 9 44 18 90 21 103 2 12 10 22 16 22 11 0
162 45 258 77 25 8 56 17 70 20 13 2 27 6 29 9 2 2 11 4 18 4 11 0 13 -10 8
-42z m-2379 -1944 c-2 -5 -48 -154 -101 -330 -53 -175 -100 -323 -103 -329 -3
-5 -9 4 -13 20 -4 17 -16 59 -27 95 -37 118 -139 454 -155 505 l-14 50 208 0
c143 0 208 -3 205 -11z"/>
<path d="M3977 4725 c-32 -58 -63 -107 -68 -111 -5 -3 -31 8 -57 24 -26 16
-68 37 -95 47 -87 33 -205 6 -269 -62 -24 -26 -248 -405 -305 -517 -30 -59
-37 -133 -17 -187 7 -23 11 -45 9 -50 -3 -5 -43 -20 -88 -35 -108 -35 -231
-40 -337 -13 -127 32 -301 126 -403 216 l-38 34 -26 -26 c-14 -14 -58 -47 -97
-73 -168 -113 -302 -163 -461 -171 -8 -1 -11 -62 -6 -135 1 -11 122 1 186 18
123 33 245 91 348 163 26 18 50 33 54 33 3 0 40 -22 82 -49 222 -142 434 -195
638 -158 l71 13 -29 -51 c-29 -51 -34 -54 -121 -76 -83 -20 -134 -80 -228
-263 -14 -26 -30 -50 -36 -53 -24 -9 -222 108 -293 173 -14 13 -29 24 -32 24
-3 0 -22 -14 -40 -30 -129 -115 -328 -210 -474 -226 -78 -8 -76 -6 -73 -81 3
-61 5 -68 23 -67 160 9 327 69 488 173 l77 51 58 -39 c159 -109 366 -182 517
-183 175 -1 353 58 527 174 l66 45 44 -34 c176 -140 446 -212 668 -178 117 18
304 98 423 182 l48 33 57 -39 c167 -113 393 -192 520 -182 13 1 18 126 5 134
-5 3 -36 7 -69 11 -141 15 -359 119 -472 227 -18 17 -38 28 -45 25 -7 -3 -43
-31 -82 -61 -100 -79 -268 -164 -354 -180 -14 -3 -37 -7 -51 -10 -31 -7 -178
-8 -205 -1 -11 2 -27 5 -35 5 -8 1 -27 18 -42 39 l-26 37 37 70 c36 66 40 70
80 77 48 8 94 34 132 75 28 29 109 157 109 172 0 16 36 39 95 60 70 26 168 78
243 129 44 30 56 34 70 24 108 -75 283 -164 346 -176 12 -2 28 -7 36 -10 19
-7 60 -14 132 -22 l58 -7 0 72 c0 61 -3 71 -17 71 -86 2 -206 37 -315 92 -81
40 -209 128 -236 161 -12 14 -22 10 -90 -42 -74 -56 -182 -125 -182 -116 0 2
13 26 28 52 44 75 56 111 55 172 0 102 -52 181 -162 242 -31 18 -62 36 -68 42
-13 9 5 48 84 185 20 34 23 45 13 57 -7 8 -16 15 -20 15 -4 0 -59 30 -121 66
-139 81 -179 104 -182 104 -1 0 -28 -47 -60 -105z"/>
<path d="M3504 2984 c2 -21 7 -68 11 -104 3 -36 8 -76 10 -90 2 -14 7 -54 10
-90 9 -90 14 -137 21 -192 l6 -48 75 118 c41 64 86 135 99 158 l24 40 -109
105 c-59 57 -118 113 -130 123 l-22 20 5 -40z"/>
<path d="M2358 2799 c-38 -50 -68 -94 -68 -98 0 -5 57 -57 127 -117 70 -60
135 -116 143 -124 54 -52 152 -132 156 -128 12 12 161 434 155 440 -5 6 -431
119 -443 118 -2 0 -33 -41 -70 -91z"/>
<path d="M3115 2698 c12 -35 46 -125 74 -202 28 -76 53 -142 57 -145 3 -3 11
1 17 10 7 8 45 54 86 102 40 48 72 89 70 91 -3 3 -269 171 -316 199 -6 4 -1
-21 12 -55z"/>
<path d="M2230 2351 c96 -169 164 -291 197 -351 13 -25 27 -48 31 -52 6 -6
228 75 240 87 2 2 -5 12 -15 22 -169 178 -166 175 -327 270 -87 51 -160 93
-162 93 -2 0 15 -31 36 -69z"/>
<path d="M3359 2207 l-107 -32 -176 -210 c-96 -115 -176 -212 -176 -216 0 -3
75 14 167 38 115 29 172 48 180 60 7 10 17 23 23 30 5 7 10 14 10 17 0 3 20
33 44 68 23 35 62 97 86 138 23 41 51 90 62 108 24 40 24 40 -113 -1z"/>
</g>
</svg>
